<?xml version="1.0" encoding="UTF-8"?>
<svg xmlns="http://www.w3.org/2000/svg" xmlns:xlink="http://www.w3.org/1999/xlink" width="16px" height="16px" viewBox="0 0 16 16" version="1.1">
<g id="surface1">
<path style=" stroke:none;fill-rule:nonzero;fill:rgb(0%,0%,0%);fill-opacity:1;" d="M 6.28125 1.761719 C 4.828125 1.851562 4.050781 2.054688 3.632812 2.453125 C 3.410156 2.671875 3.101562 3.140625 2.820312 3.703125 C 2.519531 4.289062 2.34375 4.78125 2.117188 5.644531 L 2.078125 5.792969 L 1.910156 5.535156 C 1.722656 5.25 1.507812 5.054688 1.273438 4.945312 C 1.058594 4.847656 0.535156 4.847656 0.382812 4.945312 C 0.203125 5.050781 0.148438 5.25 0.160156 5.707031 C 0.175781 6.121094 0.214844 6.222656 0.394531 6.335938 C 0.472656 6.390625 0.59375 6.398438 1.199219 6.410156 C 1.589844 6.417969 1.910156 6.425781 1.910156 6.433594 C 1.910156 6.441406 1.832031 6.527344 1.734375 6.625 C 1.148438 7.226562 0.804688 7.933594 0.71875 8.714844 C 0.664062 9.25 0.769531 10.820312 0.914062 11.511719 C 0.988281 11.878906 1.160156 12.335938 1.28125 12.507812 C 1.339844 12.589844 1.453125 12.679688 1.550781 12.726562 L 1.714844 12.804688 L 1.734375 13.347656 C 1.753906 13.980469 1.789062 14.082031 2.023438 14.191406 C 2.148438 14.246094 2.253906 14.257812 2.765625 14.257812 C 3.273438 14.257812 3.382812 14.246094 3.507812 14.191406 C 3.742188 14.082031 3.777344 13.996094 3.796875 13.492188 L 3.804688 13.054688 L 4.199219 13.078125 C 4.410156 13.089844 4.925781 13.121094 5.339844 13.144531 C 6.3125 13.195312 9.6875 13.195312 10.660156 13.144531 C 11.070312 13.121094 11.589844 13.089844 11.808594 13.078125 L 12.199219 13.054688 L 12.199219 13.457031 C 12.199219 13.941406 12.246094 14.0625 12.480469 14.175781 C 12.621094 14.25 12.683594 14.257812 13.230469 14.257812 C 13.738281 14.257812 13.847656 14.246094 13.972656 14.191406 C 14.207031 14.082031 14.242188 13.980469 14.265625 13.347656 L 14.28125 12.804688 L 14.445312 12.726562 C 14.648438 12.632812 14.753906 12.492188 14.894531 12.144531 C 15.097656 11.640625 15.203125 10.972656 15.277344 9.691406 C 15.324219 8.964844 15.289062 8.519531 15.148438 8.082031 C 14.988281 7.566406 14.671875 7.046875 14.265625 6.625 C 14.164062 6.527344 14.089844 6.441406 14.089844 6.433594 C 14.089844 6.425781 14.40625 6.417969 14.800781 6.410156 C 15.574219 6.398438 15.625 6.386719 15.757812 6.183594 C 15.851562 6.042969 15.871094 5.382812 15.785156 5.171875 C 15.695312 4.933594 15.578125 4.878906 15.191406 4.878906 C 14.695312 4.878906 14.40625 5.046875 14.09375 5.527344 L 13.917969 5.792969 L 13.878906 5.644531 C 13.589844 4.539062 13.332031 3.902344 12.890625 3.183594 C 12.539062 2.601562 12.371094 2.410156 12.042969 2.21875 C 11.699219 2.019531 11.128906 1.890625 10.1875 1.796875 C 9.699219 1.746094 6.914062 1.722656 6.28125 1.761719 Z M 10.011719 2.777344 C 11.03125 2.878906 11.75 3.054688 11.921875 3.234375 C 12.050781 3.375 12.546875 4.382812 12.71875 4.863281 C 12.878906 5.300781 13.085938 6.054688 13.058594 6.09375 C 13.050781 6.109375 12.8125 6.101562 12.523438 6.082031 C 10.203125 5.894531 7.808594 5.855469 5.390625 5.964844 C 4.558594 6 3.179688 6.089844 3.015625 6.121094 C 2.917969 6.136719 2.917969 6.132812 2.941406 6.007812 C 2.992188 5.734375 3.214844 5.015625 3.363281 4.632812 C 3.5625 4.140625 3.960938 3.359375 4.082031 3.230469 C 4.242188 3.058594 4.996094 2.875 5.984375 2.773438 C 6.894531 2.683594 9.085938 2.683594 10.011719 2.777344 Z M 3.675781 7.796875 C 4.082031 7.976562 4.292969 8.292969 4.316406 8.746094 C 4.332031 9 4.320312 9.054688 4.234375 9.25 C 4.125 9.492188 3.910156 9.710938 3.664062 9.824219 C 3.410156 9.941406 3.003906 9.929688 2.742188 9.800781 C 2.066406 9.46875 1.910156 8.570312 2.433594 8.03125 C 2.761719 7.691406 3.242188 7.601562 3.675781 7.796875 Z M 13.238281 7.800781 C 13.902344 8.101562 14.089844 8.984375 13.59375 9.542969 C 13.519531 9.632812 13.367188 9.746094 13.253906 9.800781 C 12.992188 9.929688 12.585938 9.941406 12.332031 9.824219 C 12.113281 9.722656 11.882812 9.503906 11.777344 9.296875 C 11.648438 9.042969 11.636719 8.621094 11.75 8.371094 C 11.863281 8.128906 11.992188 7.976562 12.191406 7.863281 C 12.53125 7.664062 12.882812 7.640625 13.238281 7.800781 Z M 10.46875 9.945312 C 10.726562 10.152344 10.667969 10.382812 10.25 10.816406 C 9.914062 11.160156 10.042969 11.140625 8 11.140625 C 5.953125 11.140625 6.085938 11.160156 5.746094 10.816406 C 5.386719 10.445312 5.3125 10.265625 5.421875 10.058594 C 5.519531 9.882812 5.464844 9.886719 8.015625 9.886719 C 10.222656 9.882812 10.402344 9.890625 10.46875 9.945312 Z M 10.46875 9.945312 "/>
</g>
</svg>
