<?xml version="1.0" encoding="UTF-8"?>
<svg xmlns="http://www.w3.org/2000/svg" xmlns:xlink="http://www.w3.org/1999/xlink" width="16px" height="16px" viewBox="0 0 16 16" version="1.1">
<g id="surface1">
<path style=" stroke:none;fill-rule:nonzero;fill:rgb(0%,0%,0%);fill-opacity:1;" d="M 15.742188 7.289062 L 13.316406 4.863281 L 13.316406 2.058594 C 13.316406 1.550781 12.90625 1.140625 12.398438 1.140625 C 11.890625 1.140625 11.480469 1.550781 11.480469 2.058594 L 11.480469 3.027344 L 9.675781 1.21875 C 8.78125 0.328125 7.226562 0.328125 6.335938 1.222656 L 0.269531 7.289062 C -0.0898438 7.648438 -0.0898438 8.230469 0.269531 8.585938 C 0.628906 8.945312 1.207031 8.945312 1.566406 8.585938 L 7.632812 2.519531 C 7.832031 2.324219 8.179688 2.324219 8.378906 2.519531 L 14.445312 8.585938 C 14.625 8.765625 14.859375 8.855469 15.09375 8.855469 C 15.328125 8.855469 15.566406 8.765625 15.742188 8.585938 C 16.101562 8.230469 16.101562 7.648438 15.742188 7.289062 Z M 15.742188 7.289062 "/>
<path style=" stroke:none;fill-rule:nonzero;fill:rgb(0%,0%,0%);fill-opacity:1;" d="M 8.324219 4.261719 C 8.148438 4.085938 7.863281 4.085938 7.6875 4.261719 L 2.351562 9.597656 C 2.265625 9.679688 2.21875 9.796875 2.21875 9.917969 L 2.21875 13.808594 C 2.21875 14.722656 2.957031 15.460938 3.871094 15.460938 L 6.515625 15.460938 L 6.515625 11.371094 L 9.496094 11.371094 L 9.496094 15.460938 L 12.140625 15.460938 C 13.054688 15.460938 13.792969 14.722656 13.792969 13.808594 L 13.792969 9.917969 C 13.792969 9.796875 13.746094 9.679688 13.660156 9.597656 Z M 8.324219 4.261719 "/>
</g>
</svg>
