<?xml version="1.0" encoding="UTF-8"?>
<svg xmlns="http://www.w3.org/2000/svg" xmlns:xlink="http://www.w3.org/1999/xlink" width="16px" height="16px" viewBox="0 0 16 16" version="1.1">
<g id="surface1">
<path style=" stroke:none;fill-rule:nonzero;fill:rgb(0%,0%,0%);fill-opacity:1;" d="M 8 0 C 3.582031 0 0 3.582031 0 8 C 0 12.417969 3.582031 16 8 16 C 12.417969 16 16 12.417969 16 8 C 16 3.582031 12.417969 0 8 0 Z M 1.023438 8.5 L 2.742188 8.5 C 2.777344 9.332031 2.90625 10.089844 3.097656 10.773438 L 1.574219 10.773438 C 1.269531 10.066406 1.082031 9.300781 1.023438 8.5 Z M 10.46875 7.5 C 10.429688 6.695312 10.335938 5.933594 10.207031 5.226562 L 11.84375 5.226562 C 12.0625 5.898438 12.210938 6.65625 12.257812 7.5 Z M 6.738281 10.773438 C 6.597656 9.992188 6.527344 9.230469 6.515625 8.5 L 9.484375 8.5 C 9.472656 9.230469 9.402344 9.992188 9.261719 10.773438 Z M 9.042969 11.773438 C 8.808594 12.671875 8.46875 13.589844 8 14.507812 C 7.53125 13.589844 7.191406 12.671875 6.957031 11.773438 Z M 6.53125 7.5 C 6.570312 6.691406 6.671875 5.929688 6.808594 5.226562 L 9.191406 5.226562 C 9.328125 5.929688 9.429688 6.691406 9.46875 7.5 Z M 7.03125 4.226562 C 7.34375 3.007812 7.730469 2.046875 8 1.453125 C 8.269531 2.046875 8.65625 3.007812 8.96875 4.226562 Z M 9.992188 4.226562 C 9.675781 2.90625 9.265625 1.84375 8.960938 1.15625 C 9.339844 1.425781 10.59375 2.421875 11.453125 4.226562 Z M 7.039062 1.15625 C 6.734375 1.84375 6.324219 2.90625 6.003906 4.226562 L 4.546875 4.226562 C 5.40625 2.421875 6.660156 1.425781 7.039062 1.15625 Z M 5.792969 5.226562 C 5.664062 5.933594 5.570312 6.695312 5.53125 7.5 L 3.742188 7.5 C 3.785156 6.65625 3.9375 5.898438 4.15625 5.226562 Z M 2.742188 7.5 L 1.023438 7.5 C 1.082031 6.699219 1.269531 5.933594 1.574219 5.226562 L 3.105469 5.226562 C 2.910156 5.910156 2.78125 6.667969 2.742188 7.5 Z M 3.742188 8.5 L 5.519531 8.5 C 5.53125 9.234375 5.589844 9.992188 5.722656 10.773438 L 4.15625 10.773438 C 3.933594 10.097656 3.785156 9.34375 3.742188 8.5 Z M 5.929688 11.773438 C 6.175781 12.789062 6.539062 13.832031 7.0625 14.875 C 6.710938 14.621094 5.421875 13.609375 4.550781 11.773438 Z M 8.933594 14.878906 C 9.460938 13.832031 9.824219 12.789062 10.070312 11.773438 L 11.460938 11.773438 C 10.589844 13.617188 9.296875 14.621094 8.933594 14.878906 Z M 10.277344 10.773438 C 10.410156 9.992188 10.46875 9.234375 10.480469 8.5 L 12.257812 8.5 C 12.214844 9.34375 12.066406 10.101562 11.851562 10.773438 Z M 13.257812 8.5 L 14.976562 8.5 C 14.917969 9.300781 14.730469 10.066406 14.425781 10.773438 L 12.898438 10.773438 C 13.09375 10.089844 13.21875 9.332031 13.257812 8.5 Z M 13.257812 7.5 C 13.21875 6.667969 13.089844 5.910156 12.894531 5.226562 L 14.425781 5.226562 C 14.730469 5.933594 14.917969 6.699219 14.976562 7.5 Z M 13.886719 4.226562 L 12.539062 4.226562 C 12.09375 3.152344 11.511719 2.300781 10.960938 1.667969 C 12.164062 2.230469 13.175781 3.121094 13.886719 4.226562 Z M 5.035156 1.667969 C 4.488281 2.300781 3.90625 3.152344 3.457031 4.226562 L 2.113281 4.226562 C 2.824219 3.121094 3.835938 2.230469 5.035156 1.667969 Z M 2.113281 11.773438 L 3.449219 11.773438 C 3.890625 12.835938 4.464844 13.6875 5.011719 14.320312 C 3.824219 13.753906 2.820312 12.871094 2.113281 11.773438 Z M 10.992188 14.320312 C 11.535156 13.6875 12.109375 12.835938 12.550781 11.773438 L 13.886719 11.773438 C 13.179688 12.871094 12.179688 13.753906 10.992188 14.320312 Z M 10.992188 14.320312 "/>
</g>
</svg>
