<?xml version="1.0" encoding="UTF-8"?>
<svg xmlns="http://www.w3.org/2000/svg" xmlns:xlink="http://www.w3.org/1999/xlink" width="16px" height="16px" viewBox="0 0 16 16" version="1.1">
<g id="surface1">
<path style=" stroke:none;fill-rule:nonzero;fill:rgb(0%,0%,0%);fill-opacity:1;" d="M 15.335938 0.410156 C 15.378906 0.230469 15.269531 0.0507812 15.089844 0.0078125 C 15.011719 -0.0078125 14.929688 0 14.855469 0.0390625 L 1.175781 7.210938 C 0.699219 7.460938 0.515625 8.050781 0.765625 8.53125 C 0.847656 8.679688 0.964844 8.808594 1.109375 8.898438 L 4.15625 10.824219 C 4.21875 10.863281 4.300781 10.855469 4.355469 10.808594 L 12.476562 3.550781 C 12.542969 3.484375 12.648438 3.488281 12.710938 3.554688 C 12.769531 3.617188 12.769531 3.710938 12.714844 3.777344 L 6.226562 11.917969 C 6.167969 11.988281 6.179688 12.09375 6.253906 12.152344 L 6.269531 12.160156 L 10.566406 14.878906 C 11.019531 15.164062 11.617188 15.027344 11.902344 14.574219 C 11.960938 14.484375 12.003906 14.386719 12.027344 14.28125 Z M 15.335938 0.410156 "/>
<path style=" stroke:none;fill-rule:nonzero;fill:rgb(0%,0%,0%);fill-opacity:1;" d="M 5.25 12.796875 C 5.171875 12.746094 5.070312 12.769531 5.019531 12.847656 L 4.996094 12.9375 C 4.996094 13.644531 4.996094 15.332031 4.996094 15.332031 C 4.996094 15.699219 5.292969 16 5.664062 16 C 5.839844 16 6.007812 15.929688 6.132812 15.804688 L 7.480469 14.457031 C 7.546875 14.390625 7.546875 14.285156 7.480469 14.21875 L 7.453125 14.199219 Z M 5.25 12.796875 "/>
</g>
</svg>
