<?xml version="1.0" encoding="UTF-8"?>
<svg xmlns="http://www.w3.org/2000/svg" xmlns:xlink="http://www.w3.org/1999/xlink" width="16px" height="16px" viewBox="0 0 16 16" version="1.1">
<g id="surface1">
<path style=" stroke:none;fill-rule:nonzero;fill:rgb(0%,0%,0%);fill-opacity:1;" d="M 6.898438 9.082031 L 8.808594 10.992188 C 8.980469 11.164062 9.246094 11.203125 9.457031 11.085938 L 11.746094 9.859375 C 11.914062 9.765625 12.121094 9.773438 12.285156 9.871094 L 15.625 11.851562 C 15.863281 11.992188 15.960938 12.289062 15.847656 12.542969 C 15.5625 13.191406 15.042969 14.382812 14.835938 14.910156 C 14.792969 15.019531 14.730469 15.121094 14.640625 15.199219 C 12.414062 17.128906 7.984375 14.777344 4.59375 11.386719 C 1.203125 7.996094 -1.144531 3.570312 0.78125 1.34375 C 0.859375 1.253906 0.960938 1.1875 1.074219 1.144531 C 1.597656 0.9375 2.789062 0.417969 3.4375 0.132812 C 3.691406 0.0234375 3.988281 0.117188 4.128906 0.355469 L 6.113281 3.695312 C 6.210938 3.863281 6.214844 4.066406 6.125 4.234375 L 4.894531 6.523438 C 4.78125 6.738281 4.820312 7 4.988281 7.171875 C 4.988281 7.171875 6.898438 9.082031 6.898438 9.082031 Z M 6.898438 9.082031 "/>
<path style=" stroke:none;fill-rule:nonzero;fill:rgb(0%,0%,0%);fill-opacity:1;" d="M 15.894531 8.78125 L 14.3125 8.78125 C 14.3125 4.859375 11.121094 1.667969 7.199219 1.667969 L 7.199219 0.0898438 C 11.996094 0.0898438 15.894531 3.988281 15.894531 8.78125 Z M 15.894531 8.78125 "/>
<path style=" stroke:none;fill-rule:nonzero;fill:rgb(0%,0%,0%);fill-opacity:1;" d="M 12.820312 8.78125 L 11.238281 8.78125 C 11.238281 6.554688 9.429688 4.742188 7.199219 4.742188 L 7.199219 3.160156 C 10.300781 3.160156 12.820312 5.683594 12.820312 8.78125 Z M 12.820312 8.78125 "/>
</g>
</svg>
